<svg width="62" height="62" viewBox="0 0 62 62" fill="none" xmlns="http://www.w3.org/2000/svg">
<path fill-rule="evenodd" clip-rule="evenodd" d="M61.2381 1.33605V60.4928C61.2593 60.7795 61.1637 61.0663 60.9514 61.2786C60.5585 61.6715 59.932 61.6715 59.5497 61.2786L43.0057 44.7347C42.8252 44.5542 42.719 44.3099 42.719 44.0339C42.719 43.4817 43.165 43.0357 43.7172 43.0357H53.7094C53.8474 43.0357 53.9749 43.0145 54.0917 42.9614C54.2085 42.9189 54.3147 42.8339 54.4102 42.7384C54.5058 42.6428 54.5801 42.5366 54.6332 42.4198C54.6757 42.303 54.7076 42.1756 54.7076 42.0375C54.7076 41.9632 54.7076 41.8995 54.6969 41.8464C54.6863 41.7827 54.6651 41.719 54.6332 41.6553C54.612 41.6022 54.5801 41.5491 54.5377 41.4854C54.5377 41.4854 54.4846 41.4004 54.4527 41.3686C54.4209 41.3367 54.389 41.3155 54.3678 41.2836L40.1281 27.0439C40.0325 26.9484 39.9157 26.874 39.8095 26.8316C39.6927 26.7785 39.5547 26.7572 39.4272 26.7572C39.2998 26.7572 39.1724 26.7785 39.045 26.8316C38.9388 26.874 38.8432 26.9377 38.7583 27.0121L38.7158 27.0545C38.7158 27.0545 38.6521 27.1183 38.6202 27.1607L38.599 27.2032C38.5565 27.2669 38.5247 27.32 38.5034 27.3731C38.4822 27.4262 38.4609 27.4899 38.4503 27.5536C38.4503 27.6067 38.4291 27.6492 38.4291 27.6917V27.7448V27.8297V37.737C38.4291 37.9918 38.3335 38.2467 38.1424 38.4378C37.7495 38.8307 37.123 38.8307 36.7407 38.4378C28.628 30.3251 31.1871 32.8842 23.1382 24.8352C22.9576 24.6547 22.8514 24.4105 22.8514 24.1344C22.8514 23.5822 23.2974 23.1362 23.8496 23.1362H33.8418C33.9799 23.1362 34.1073 23.115 34.2241 23.0619C34.3409 23.0088 34.4471 22.9345 34.5426 22.8389C34.6382 22.7434 34.7125 22.6372 34.7656 22.5204C34.8081 22.4036 34.84 22.2761 34.84 22.1381C34.84 22.0638 34.84 22 34.8293 21.947C34.8187 21.8832 34.7975 21.8195 34.7656 21.7558C34.7444 21.7027 34.7125 21.6496 34.6701 21.5859C34.6701 21.5859 34.617 21.501 34.5851 21.4691C34.5533 21.4373 34.5214 21.416 34.5002 21.3842L20.218 7.16572C20.1224 7.07015 20.0056 6.99582 19.8995 6.95334C19.7826 6.90025 19.6446 6.87901 19.5172 6.87901C19.3898 6.87901 19.2623 6.90025 19.1349 6.95334C19.0287 6.99582 18.9331 7.05953 18.8482 7.13386L18.8057 7.17634C18.8057 7.17634 18.742 7.24005 18.7102 7.28252L18.6889 7.325C18.6464 7.38871 18.6146 7.4418 18.5933 7.4949C18.5721 7.54799 18.5509 7.6117 18.5403 7.67542C18.5296 7.74975 18.519 7.81346 18.519 7.87717V17.795C18.5403 18.0817 18.4447 18.3685 18.2323 18.5808C17.8394 18.9737 17.2129 18.9737 16.8306 18.5808L0.286705 2.03688C0.106187 1.85637 0 1.61214 0 1.33605C0 0.783876 0.445986 0.337891 0.998158 0.337891H60.2399C60.7815 0.337891 61.2274 0.783876 61.2274 1.33605H61.2381ZM32.8861 25.706C31.2402 25.706 29.9023 27.0439 29.9023 28.6898C29.9023 30.3357 31.2402 31.6737 32.8861 31.6737C34.532 31.6737 35.87 30.3357 35.87 28.6898C35.87 27.0439 34.532 25.706 32.8861 25.706ZM32.1428 6.69849C31.9198 6.65602 31.6862 6.63478 31.442 6.63478C31.3039 6.63478 31.1871 6.63478 31.0916 6.6454C30.996 6.6454 30.8898 6.66664 30.773 6.69849H30.7411C30.6137 6.73035 30.5075 6.76221 30.412 6.78344C30.2952 6.8153 30.1784 6.85777 30.0615 6.91087C29.9554 6.95334 29.8492 7.00644 29.7324 7.07015C29.6262 7.12324 29.5306 7.18695 29.435 7.25067C29.3501 7.30376 29.2545 7.37809 29.159 7.46304C29.074 7.52675 28.9997 7.59047 28.936 7.65418C28.9041 7.68603 28.8829 7.71789 28.851 7.73913C28.7873 7.80284 28.7236 7.87717 28.6493 7.96212C28.5643 8.05769 28.5006 8.15326 28.4369 8.23821C28.3732 8.33377 28.3095 8.43996 28.2564 8.53553C28.1927 8.65234 28.1502 8.75852 28.0971 8.86471C28.0546 8.98152 28.0121 9.09832 27.9697 9.21513C27.9378 9.3107 27.9166 9.41688 27.8847 9.54431C27.8635 9.67173 27.8422 9.78854 27.8316 9.89472C27.8316 9.99029 27.821 10.1071 27.821 10.2451C27.821 10.3832 27.821 10.5 27.8316 10.5956C27.8316 10.6699 27.8529 10.7655 27.8741 10.861L27.8953 10.9354C27.9166 11.0522 27.9378 11.1371 27.959 11.2008L28.0121 11.3813C28.0121 11.3813 28.0546 11.4875 28.0652 11.5406L28.0971 11.615C28.1396 11.7211 28.182 11.8167 28.2351 11.9123C28.2882 12.0185 28.3413 12.114 28.405 12.199C28.4581 12.2839 28.5112 12.3583 28.5643 12.422L28.5962 12.4644C28.6599 12.5388 28.7236 12.6131 28.7873 12.6874C28.8404 12.7405 28.8829 12.7936 28.936 12.8467C29.0103 12.9211 29.0952 12.9848 29.1908 13.0591C29.2651 13.1228 29.3607 13.1865 29.4669 13.2502C29.5625 13.3139 29.658 13.367 29.7536 13.4201C29.8492 13.4732 29.9447 13.5157 30.0615 13.5582C30.1784 13.6007 30.2952 13.6431 30.412 13.6856C30.5075 13.7175 30.6137 13.7387 30.7411 13.7705C30.8686 13.8024 30.9854 13.813 31.0916 13.8236C31.1871 13.8236 31.3039 13.8343 31.442 13.8343C31.58 13.8343 31.6968 13.8343 31.7924 13.8236C31.8667 13.8236 31.9623 13.8024 32.0579 13.7812L32.1322 13.7599C32.249 13.7387 32.334 13.7175 32.3977 13.6962L32.5782 13.6431C32.5782 13.6431 32.6844 13.6007 32.7375 13.59L32.8118 13.5582C32.9286 13.5157 33.0348 13.4626 33.1304 13.4095C33.2259 13.3564 33.3109 13.3033 33.4064 13.2502L33.4383 13.229C33.5445 13.1547 33.6401 13.091 33.725 13.0166C33.7993 12.9529 33.8843 12.8786 33.9799 12.783C34.1497 12.6131 34.2984 12.4326 34.4258 12.2415C34.5639 12.0397 34.6701 11.8273 34.7656 11.615C34.8506 11.4026 34.9249 11.1796 34.9674 10.9354C35.0099 10.7124 35.0311 10.4788 35.0311 10.2345C35.0311 10.0965 35.0311 9.97967 35.0205 9.8841C35.0205 9.78854 34.9992 9.68235 34.978 9.56554V9.53369C34.9462 9.40626 34.9143 9.30008 34.8931 9.20451C34.8612 9.0877 34.8187 8.9709 34.7656 8.85409C34.7232 8.7479 34.6701 8.64172 34.617 8.52491C34.5639 8.41872 34.5002 8.32316 34.4365 8.22759C34.3727 8.14264 34.309 8.04707 34.2241 7.9515C34.1391 7.84531 34.0648 7.76036 33.9905 7.68603C33.8206 7.51613 33.6401 7.36747 33.4489 7.24005C33.2472 7.102 33.0348 6.99582 32.8224 6.90025C32.61 6.8153 32.387 6.74097 32.1428 6.69849ZM52.0316 26.5873C51.8087 26.5448 51.575 26.5236 51.3308 26.5236C51.1928 26.5236 51.076 26.5236 50.9804 26.5342C50.8848 26.5342 50.7786 26.5555 50.6618 26.5873H50.63C50.5026 26.6192 50.3964 26.651 50.3008 26.6723C50.184 26.7041 50.0672 26.7466 49.9504 26.7997C49.8442 26.8422 49.738 26.8953 49.6212 26.959C49.5256 27.0121 49.4194 27.0758 49.3239 27.1395C49.2389 27.1926 49.1434 27.2669 49.0478 27.3519C48.9628 27.4156 48.8885 27.4899 48.8248 27.543C48.7929 27.5749 48.7717 27.6067 48.7398 27.628C48.6761 27.6917 48.6124 27.766 48.5381 27.851C48.4531 27.9465 48.3894 28.0421 48.3257 28.127C48.262 28.2226 48.1983 28.3288 48.1452 28.4244C48.0815 28.5412 48.039 28.6474 47.9965 28.7535C47.9541 28.8703 47.9116 28.9872 47.8691 29.104C47.8373 29.1995 47.816 29.3057 47.7842 29.4331C47.7629 29.5606 47.7417 29.6774 47.7311 29.7836C47.7311 29.8791 47.7205 29.9959 47.7205 30.134C47.7205 30.272 47.7205 30.3888 47.7311 30.4844C47.7311 30.5587 47.7523 30.6543 47.7735 30.7499L47.7948 30.8242C47.816 30.941 47.8373 31.0259 47.8585 31.0897L47.9116 31.2702C47.9116 31.2702 47.9541 31.3764 47.9647 31.4295L47.9965 31.5038C48.039 31.61 48.0815 31.7055 48.1346 31.8011C48.1877 31.9073 48.2514 32.0029 48.3045 32.0878C48.3576 32.1728 48.4107 32.2471 48.4638 32.3108L48.4956 32.3533C48.5593 32.4276 48.623 32.5019 48.6868 32.5763C48.7398 32.6294 48.7823 32.6825 48.8354 32.7356C48.9097 32.8099 48.9947 32.8736 49.0796 32.9479C49.154 33.0116 49.2495 33.0754 49.3557 33.1391C49.4513 33.2028 49.5469 33.2559 49.6424 33.309C49.738 33.3621 49.8336 33.4045 49.9504 33.447C50.0672 33.4895 50.184 33.532 50.3008 33.5744C50.3964 33.6063 50.5026 33.6275 50.63 33.6594C50.7574 33.6912 50.8742 33.7019 50.9804 33.7125C51.076 33.7125 51.1928 33.7231 51.3308 33.7231C51.4689 33.7231 51.5857 33.7231 51.6812 33.7125C51.7556 33.7125 51.8511 33.6912 51.9467 33.67L52.021 33.6488C52.1378 33.6275 52.2228 33.6063 52.2865 33.5851L52.467 33.532C52.467 33.532 52.5732 33.4895 52.6263 33.4789L52.7006 33.447C52.8174 33.4045 52.9236 33.3514 53.0192 33.2983C53.1041 33.2453 53.1997 33.1922 53.2953 33.1391L53.3271 33.1178C53.4333 33.0435 53.5289 32.9798 53.6138 32.9055C53.6882 32.8417 53.7731 32.7674 53.8687 32.6718C54.0386 32.5019 54.1872 32.3214 54.3147 32.1303C54.4527 31.9285 54.5589 31.7162 54.6545 31.5038C54.7394 31.2914 54.8137 31.0684 54.8562 30.8242C54.8987 30.6012 54.9306 30.3676 54.9306 30.1234C54.9306 29.9853 54.9306 29.8685 54.9199 29.7729C54.9199 29.6774 54.8987 29.5712 54.8775 29.4544V29.4225C54.8456 29.2951 54.8137 29.1889 54.7925 29.0933C54.7607 28.9765 54.7182 28.8597 54.6651 28.7429C54.6226 28.6367 54.5695 28.5305 54.5164 28.4137C54.4633 28.3076 54.3996 28.212 54.3359 28.1164C54.2828 28.0315 54.2085 27.9359 54.1235 27.8403C54.0386 27.7341 53.9642 27.6492 53.8899 27.5749C53.72 27.405 53.5395 27.2563 53.3484 27.1289C53.1466 26.9908 52.9342 26.8846 52.7219 26.7891C52.5095 26.7041 52.2865 26.6298 52.0423 26.5873H52.0316ZM53.9961 5.93395C53.8899 5.88085 53.7731 5.82776 53.6351 5.76405L53.5714 5.74281C53.4652 5.70034 53.359 5.65786 53.2422 5.626C53.1254 5.59415 53.0192 5.56229 52.913 5.54106C52.8174 5.51982 52.7112 5.5092 52.5838 5.48796C52.467 5.47734 52.3714 5.46672 52.2759 5.46672C52.1485 5.46672 52.021 5.46672 51.8936 5.46672H51.7768C51.66 5.46672 51.5326 5.48796 51.3945 5.49858C51.2777 5.5092 51.1715 5.53044 51.0653 5.55167H51.0335C50.9061 5.58353 50.7893 5.61539 50.6618 5.65786C50.5238 5.70034 50.407 5.74281 50.2902 5.7959C50.0353 5.90209 49.7805 6.04013 49.5469 6.1888C49.3239 6.33746 49.1115 6.50736 48.9204 6.70911C48.7186 6.91087 48.5487 7.12324 48.4001 7.33562C48.2514 7.56923 48.1133 7.81346 48.0072 8.06831C47.901 8.31254 47.8266 8.578 47.7735 8.85409C47.7205 9.11956 47.6886 9.39565 47.6886 9.67173C47.6886 9.83101 47.6886 9.96906 47.7098 10.0859C47.7205 10.2027 47.7417 10.3407 47.7735 10.4894C47.8054 10.6487 47.8373 10.7761 47.8691 10.8823C47.901 10.9991 47.9541 11.1265 48.0072 11.2752C48.0602 11.4132 48.124 11.53 48.1771 11.6468C48.2408 11.753 48.3045 11.8804 48.3894 12.0078C48.4744 12.1353 48.5593 12.2415 48.6337 12.3476C48.708 12.4432 48.7929 12.5388 48.9097 12.645C49.1115 12.8467 49.3239 13.0166 49.5363 13.1653C49.7699 13.3139 50.0141 13.452 50.2689 13.5582C50.5132 13.6644 50.7786 13.7387 51.0547 13.7918C51.3202 13.8449 51.5963 13.8767 51.8724 13.8767C52.0316 13.8767 52.1697 13.8767 52.2865 13.8555C52.4033 13.8449 52.5413 13.8236 52.69 13.7918C52.8387 13.7599 52.9661 13.7281 53.0829 13.6962C53.1997 13.6644 53.3271 13.6113 53.4758 13.5476C53.7413 13.4414 53.9855 13.3033 54.2191 13.1547C54.4421 13.006 54.6545 12.8361 54.8456 12.6343C55.0367 12.4432 55.2066 12.2415 55.3553 12.0185C55.504 11.7955 55.642 11.5619 55.7376 11.3176C55.8331 11.084 55.9181 10.8398 55.9712 10.5743C56.0243 10.3301 56.0561 10.0752 56.0668 9.83101C56.0668 9.70359 56.0668 9.57616 56.0668 9.44874V9.33193C56.0668 9.22574 56.0455 9.10894 56.0349 8.9709C56.0243 8.85409 56.003 8.7479 55.9818 8.65234V8.62048C55.95 8.50367 55.9181 8.38687 55.8862 8.27006C55.8438 8.14264 55.8013 8.02583 55.7588 7.91964C55.7163 7.81346 55.6632 7.69665 55.5889 7.56923C55.5252 7.45242 55.4615 7.34624 55.3872 7.22943C55.3234 7.13386 55.2491 7.02767 55.1535 6.92149C55.058 6.80468 54.973 6.70911 54.8881 6.62416C54.7819 6.51798 54.6969 6.43303 54.612 6.36931C54.5164 6.29498 54.4102 6.21003 54.2934 6.1357C54.1872 6.06137 54.0704 5.98704 53.9536 5.93395H53.9961ZM39.406 23.1469H53.6988C53.8368 23.1469 53.9643 23.1256 54.0811 23.0725C54.1979 23.0194 54.304 22.9451 54.3996 22.8495C54.4952 22.754 54.5695 22.6478 54.6226 22.531C54.6651 22.4142 54.6969 22.2867 54.6969 22.1487C54.6969 22.0744 54.6969 22.0107 54.6863 21.9576C54.6757 21.8939 54.6545 21.8301 54.6226 21.7664C54.6014 21.7133 54.5695 21.6602 54.527 21.5965C54.527 21.5965 54.4739 21.5116 54.4421 21.4797C54.4102 21.4479 54.3784 21.4266 54.3571 21.3948L40.1175 7.1551C40.0219 7.05953 39.9051 6.9852 39.7989 6.94272C39.6821 6.88963 39.544 6.86839 39.4166 6.86839C39.2892 6.86839 39.1618 6.88963 39.0344 6.94272C38.9282 6.9852 38.8326 7.04891 38.7477 7.12324L38.7052 7.16572C38.7052 7.16572 38.6415 7.22943 38.6096 7.2719L38.5884 7.31438C38.5459 7.37809 38.514 7.43118 38.4928 7.48428C38.4716 7.53737 38.4503 7.60108 38.4397 7.6648C38.4397 7.71789 38.4185 7.76036 38.4185 7.80284V7.85593V7.94088V22.1487C38.4185 22.2867 38.4397 22.4142 38.4928 22.531C38.5353 22.6478 38.6202 22.754 38.7158 22.8495C38.8114 22.9451 38.9175 23.0194 39.045 23.0725C39.1618 23.115 39.2892 23.1469 39.4166 23.1469H39.406Z" fill="url(#paint0_linear_128_496)"/>
<defs>
<linearGradient id="paint0_linear_128_496" x1="56.4065" y1="5.1694" x2="34.4577" y2="27.1183" gradientUnits="userSpaceOnUse">
<stop stop-color="#312783"/>
<stop offset="1" stop-color="#AD4582"/>
</linearGradient>
</defs>
</svg>
